<svg class="rich-terminal" viewBox="0 0 1141 586.8" xmlns="http://www.w3.org/2000/svg">
    <!-- Generated with Rich https://www.textualize.io -->
    <style>

    @font-face {
        font-family: "Fira Code";
        src: local("FiraCode-Regular"),
                url("https://cdnjs.cloudflare.com/ajax/libs/firacode/6.2.0/woff2/FiraCode-Regular.woff2") format("woff2"),
                url("https://cdnjs.cloudflare.com/ajax/libs/firacode/6.2.0/woff/FiraCode-Regular.woff") format("woff");
        font-style: normal;
        font-weight: 400;
    }
    @font-face {
        font-family: "Fira Code";
        src: local("FiraCode-Bold"),
                url("https://cdnjs.cloudflare.com/ajax/libs/firacode/6.2.0/woff2/FiraCode-Bold.woff2") format("woff2"),
                url("https://cdnjs.cloudflare.com/ajax/libs/firacode/6.2.0/woff/FiraCode-Bold.woff") format("woff");
        font-style: bold;
        font-weight: 700;
    }

    .terminal-4067999011-matrix {
        font-family: Fira Code, monospace;
        font-size: 20px;
        line-height: 24.4px;
        font-variant-east-asian: full-width;
    }

    .terminal-4067999011-title {
        font-size: 18px;
        font-weight: bold;
        font-family: arial;
    }

    .terminal-4067999011-r1 { fill: #c5c8c6 }
.terminal-4067999011-r2 { fill: #e0e0e0 }
.terminal-4067999011-r3 { fill: #0053aa }
.terminal-4067999011-r4 { fill: #fea62b;font-weight: bold }
.terminal-4067999011-r5 { fill: #989898 }
.terminal-4067999011-r6 { fill: #1e1e1e }
.terminal-4067999011-r7 { fill: #191919 }
.terminal-4067999011-r8 { fill: #7f7f7f }
.terminal-4067999011-r9 { fill: #0178d4 }
.terminal-4067999011-r10 { fill: #121212 }
.terminal-4067999011-r11 { fill: #7ae998 }
.terminal-4067999011-r12 { fill: #2d2d2d }
.terminal-4067999011-r13 { fill: #ffa62b;font-weight: bold }
.terminal-4067999011-r14 { fill: #495259 }
    </style>

    <defs>
    <clipPath id="terminal-4067999011-clip-terminal">
      <rect x="0" y="0" width="1121.3999999999999" height="535.8" />
    </clipPath>
    <clipPath id="terminal-4067999011-line-0">
    <rect x="0" y="1.5" width="1122.4" height="24.65"/>
            </clipPath>
<clipPath id="terminal-4067999011-line-1">
    <rect x="0" y="25.9" width="1122.4" height="24.65"/>
            </clipPath>
<clipPath id="terminal-4067999011-line-2">
    <rect x="0" y="50.3" width="1122.4" height="24.65"/>
            </clipPath>
<clipPath id="terminal-4067999011-line-3">
    <rect x="0" y="74.7" width="1122.4" height="24.65"/>
            </clipPath>
<clipPath id="terminal-4067999011-line-4">
    <rect x="0" y="99.1" width="1122.4" height="24.65"/>
            </clipPath>
<clipPath id="terminal-4067999011-line-5">
    <rect x="0" y="123.5" width="1122.4" height="24.65"/>
            </clipPath>
<clipPath id="terminal-4067999011-line-6">
    <rect x="0" y="147.9" width="1122.4" height="24.65"/>
            </clipPath>
<clipPath id="terminal-4067999011-line-7">
    <rect x="0" y="172.3" width="1122.4" height="24.65"/>
            </clipPath>
<clipPath id="terminal-4067999011-line-8">
    <rect x="0" y="196.7" width="1122.4" height="24.65"/>
            </clipPath>
<clipPath id="terminal-4067999011-line-9">
    <rect x="0" y="221.1" width="1122.4" height="24.65"/>
            </clipPath>
<clipPath id="terminal-4067999011-line-10">
    <rect x="0" y="245.5" width="1122.4" height="24.65"/>
            </clipPath>
<clipPath id="terminal-4067999011-line-11">
    <rect x="0" y="269.9" width="1122.4" height="24.65"/>
            </clipPath>
<clipPath id="terminal-4067999011-line-12">
    <rect x="0" y="294.3" width="1122.4" height="24.65"/>
            </clipPath>
<clipPath id="terminal-4067999011-line-13">
    <rect x="0" y="318.7" width="1122.4" height="24.65"/>
            </clipPath>
<clipPath id="terminal-4067999011-line-14">
    <rect x="0" y="343.1" width="1122.4" height="24.65"/>
            </clipPath>
<clipPath id="terminal-4067999011-line-15">
    <rect x="0" y="367.5" width="1122.4" height="24.65"/>
            </clipPath>
<clipPath id="terminal-4067999011-line-16">
    <rect x="0" y="391.9" width="1122.4" height="24.65"/>
            </clipPath>
<clipPath id="terminal-4067999011-line-17">
    <rect x="0" y="416.3" width="1122.4" height="24.65"/>
            </clipPath>
<clipPath id="terminal-4067999011-line-18">
    <rect x="0" y="440.7" width="1122.4" height="24.65"/>
            </clipPath>
<clipPath id="terminal-4067999011-line-19">
    <rect x="0" y="465.1" width="1122.4" height="24.65"/>
            </clipPath>
<clipPath id="terminal-4067999011-line-20">
    <rect x="0" y="489.5" width="1122.4" height="24.65"/>
            </clipPath>
    </defs>

    <rect fill="#292929" stroke="rgba(255,255,255,0.35)" stroke-width="1" x="1" y="1" width="1139" height="584.8" rx="8"/><text class="terminal-4067999011-title" fill="#c5c8c6" text-anchor="middle" x="569" y="27">SimpleCiscoTUI&#160;—&#160;Apply&#160;ACL</text>
            <g transform="translate(26,22)">
            <circle cx="0" cy="0" r="7" fill="#ff5f57"/>
            <circle cx="22" cy="0" r="7" fill="#febc2e"/>
            <circle cx="44" cy="0" r="7" fill="#28c840"/>
            </g>
        
    <g transform="translate(9, 41)" clip-path="url(#terminal-4067999011-clip-terminal)">
    <rect fill="#242f38" x="0" y="1.5" width="12.2" height="24.65" shape-rendering="crispEdges"/><rect fill="#242f38" x="12.2" y="1.5" width="12.2" height="24.65" shape-rendering="crispEdges"/><rect fill="#242f38" x="24.4" y="1.5" width="61" height="24.65" shape-rendering="crispEdges"/><rect fill="#242f38" x="85.4" y="1.5" width="12.2" height="24.65" shape-rendering="crispEdges"/><rect fill="#242f38" x="97.6" y="1.5" width="390.4" height="24.65" shape-rendering="crispEdges"/><rect fill="#242f38" x="488" y="1.5" width="109.8" height="24.65" shape-rendering="crispEdges"/><rect fill="#242f38" x="597.8" y="1.5" width="402.6" height="24.65" shape-rendering="crispEdges"/><rect fill="#242f38" x="1000.4" y="1.5" width="12.2" height="24.65" shape-rendering="crispEdges"/><rect fill="#242f38" x="1012.6" y="1.5" width="0" height="24.65" shape-rendering="crispEdges"/><rect fill="#242f38" x="1012.6" y="1.5" width="97.6" height="24.65" shape-rendering="crispEdges"/><rect fill="#242f38" x="1110.2" y="1.5" width="12.2" height="24.65" shape-rendering="crispEdges"/><rect fill="#1e1e1e" x="0" y="25.9" width="573.4" height="24.65" shape-rendering="crispEdges"/><rect fill="#1e1e1e" x="573.4" y="25.9" width="12.2" height="24.65" shape-rendering="crispEdges"/><rect fill="#0d0d0d" x="585.6" y="25.9" width="536.8" height="24.65" shape-rendering="crispEdges"/><rect fill="#1e1e1e" x="0" y="50.3" width="24.4" height="24.65" shape-rendering="crispEdges"/><rect fill="#1e1e1e" x="24.4" y="50.3" width="268.4" height="24.65" shape-rendering="crispEdges"/><rect fill="#1e1e1e" x="292.8" y="50.3" width="256.2" height="24.65" shape-rendering="crispEdges"/><rect fill="#1e1e1e" x="549" y="50.3" width="24.4" height="24.65" shape-rendering="crispEdges"/><rect fill="#1e1e1e" x="573.4" y="50.3" width="12.2" height="24.65" shape-rendering="crispEdges"/><rect fill="#0d0d0d" x="585.6" y="50.3" width="24.4" height="24.65" shape-rendering="crispEdges"/><rect fill="#0d0d0d" x="610" y="50.3" width="12.2" height="24.65" shape-rendering="crispEdges"/><rect fill="#0d0d0d" x="622.2" y="50.3" width="280.6" height="24.65" shape-rendering="crispEdges"/><rect fill="#0d0d0d" x="902.8" y="50.3" width="170.8" height="24.65" shape-rendering="crispEdges"/><rect fill="#000000" x="1073.6" y="50.3" width="24.4" height="24.65" shape-rendering="crispEdges"/><rect fill="#0d0d0d" x="1098" y="50.3" width="24.4" height="24.65" shape-rendering="crispEdges"/><rect fill="#1e1e1e" x="0" y="74.7" width="24.4" height="24.65" shape-rendering="crispEdges"/><rect fill="#1e1e1e" x="24.4" y="74.7" width="524.6" height="24.65" shape-rendering="crispEdges"/><rect fill="#1e1e1e" x="549" y="74.7" width="24.4" height="24.65" shape-rendering="crispEdges"/><rect fill="#1e1e1e" x="573.4" y="74.7" width="12.2" height="24.65" shape-rendering="crispEdges"/><rect fill="#0d0d0d" x="585.6" y="74.7" width="24.4" height="24.65" shape-rendering="crispEdges"/><rect fill="#0d0d0d" x="610" y="74.7" width="463.6" height="24.65" shape-rendering="crispEdges"/><rect fill="#000000" x="1073.6" y="74.7" width="24.4" height="24.65" shape-rendering="crispEdges"/><rect fill="#0d0d0d" x="1098" y="74.7" width="24.4" height="24.65" shape-rendering="crispEdges"/><rect fill="#1e1e1e" x="0" y="99.1" width="24.4" height="24.65" shape-rendering="crispEdges"/><rect fill="#1e1e1e" x="24.4" y="99.1" width="109.8" height="24.65" shape-rendering="crispEdges"/><rect fill="#1e1e1e" x="134.2" y="99.1" width="414.8" height="24.65" shape-rendering="crispEdges"/><rect fill="#1e1e1e" x="549" y="99.1" width="24.4" height="24.65" shape-rendering="crispEdges"/><rect fill="#1e1e1e" x="573.4" y="99.1" width="12.2" height="24.65" shape-rendering="crispEdges"/><rect fill="#0d0d0d" x="585.6" y="99.1" width="24.4" height="24.65" shape-rendering="crispEdges"/><rect fill="#0d0d0d" x="610" y="99.1" width="463.6" height="24.65" shape-rendering="crispEdges"/><rect fill="#000000" x="1073.6" y="99.1" width="24.4" height="24.65" shape-rendering="crispEdges"/><rect fill="#0d0d0d" x="1098" y="99.1" width="24.4" height="24.65" shape-rendering="crispEdges"/><rect fill="#1e1e1e" x="0" y="123.5" width="24.4" height="24.65" shape-rendering="crispEdges"/><rect fill="#191919" x="24.4" y="123.5" width="12.2" height="24.65" shape-rendering="crispEdges"/><rect fill="#1e1e1e" x="36.6" y="123.5" width="500.2" height="24.65" shape-rendering="crispEdges"/><rect fill="#1e1e1e" x="536.8" y="123.5" width="12.2" height="24.65" shape-rendering="crispEdges"/><rect fill="#1e1e1e" x="549" y="123.5" width="24.4" height="24.65" shape-rendering="crispEdges"/><rect fill="#1e1e1e" x="573.4" y="123.5" width="12.2" height="24.65" shape-rendering="crispEdges"/><rect fill="#0d0d0d" x="585.6" y="123.5" width="24.4" height="24.65" shape-rendering="crispEdges"/><rect fill="#0d0d0d" x="610" y="123.5" width="463.6" height="24.65" shape-rendering="crispEdges"/><rect fill="#000000" x="1073.6" y="123.5" width="24.4" height="24.65" shape-rendering="crispEdges"/><rect fill="#0d0d0d" x="1098" y="123.5" width="24.4" height="24.65" shape-rendering="crispEdges"/><rect fill="#1e1e1e" x="0" y="147.9" width="24.4" height="24.65" shape-rendering="crispEdges"/><rect fill="#191919" x="24.4" y="147.9" width="12.2" height="24.65" shape-rendering="crispEdges"/><rect fill="#1e1e1e" x="36.6" y="147.9" width="24.4" height="24.65" shape-rendering="crispEdges"/><rect fill="#1e1e1e" x="61" y="147.9" width="329.4" height="24.65" shape-rendering="crispEdges"/><rect fill="#1e1e1e" x="390.4" y="147.9" width="97.6" height="24.65" shape-rendering="crispEdges"/><rect fill="#1e1e1e" x="488" y="147.9" width="12.2" height="24.65" shape-rendering="crispEdges"/><rect fill="#1e1e1e" x="500.2" y="147.9" width="12.2" height="24.65" shape-rendering="crispEdges"/><rect fill="#1e1e1e" x="512.4" y="147.9" width="24.4" height="24.65" shape-rendering="crispEdges"/><rect fill="#1e1e1e" x="536.8" y="147.9" width="12.2" height="24.65" shape-rendering="crispEdges"/><rect fill="#1e1e1e" x="549" y="147.9" width="24.4" height="24.65" shape-rendering="crispEdges"/><rect fill="#1e1e1e" x="573.4" y="147.9" width="12.2" height="24.65" shape-rendering="crispEdges"/><rect fill="#0d0d0d" x="585.6" y="147.9" width="24.4" height="24.65" shape-rendering="crispEdges"/><rect fill="#0d0d0d" x="610" y="147.9" width="463.6" height="24.65" shape-rendering="crispEdges"/><rect fill="#000000" x="1073.6" y="147.9" width="24.4" height="24.65" shape-rendering="crispEdges"/><rect fill="#0d0d0d" x="1098" y="147.9" width="24.4" height="24.65" shape-rendering="crispEdges"/><rect fill="#1e1e1e" x="0" y="172.3" width="24.4" height="24.65" shape-rendering="crispEdges"/><rect fill="#191919" x="24.4" y="172.3" width="12.2" height="24.65" shape-rendering="crispEdges"/><rect fill="#1e1e1e" x="36.6" y="172.3" width="500.2" height="24.65" shape-rendering="crispEdges"/><rect fill="#1e1e1e" x="536.8" y="172.3" width="12.2" height="24.65" shape-rendering="crispEdges"/><rect fill="#1e1e1e" x="549" y="172.3" width="24.4" height="24.65" shape-rendering="crispEdges"/><rect fill="#1e1e1e" x="573.4" y="172.3" width="12.2" height="24.65" shape-rendering="crispEdges"/><rect fill="#0d0d0d" x="585.6" y="172.3" width="24.4" height="24.65" shape-rendering="crispEdges"/><rect fill="#0d0d0d" x="610" y="172.3" width="463.6" height="24.65" shape-rendering="crispEdges"/><rect fill="#000000" x="1073.6" y="172.3" width="24.4" height="24.65" shape-rendering="crispEdges"/><rect fill="#0d0d0d" x="1098" y="172.3" width="24.4" height="24.65" shape-rendering="crispEdges"/><rect fill="#1e1e1e" x="0" y="196.7" width="24.4" height="24.65" shape-rendering="crispEdges"/><rect fill="#1e1e1e" x="24.4" y="196.7" width="524.6" height="24.65" shape-rendering="crispEdges"/><rect fill="#1e1e1e" x="549" y="196.7" width="24.4" height="24.65" shape-rendering="crispEdges"/><rect fill="#1e1e1e" x="573.4" y="196.7" width="12.2" height="24.65" shape-rendering="crispEdges"/><rect fill="#0d0d0d" x="585.6" y="196.7" width="24.4" height="24.65" shape-rendering="crispEdges"/><rect fill="#0d0d0d" x="610" y="196.7" width="463.6" height="24.65" shape-rendering="crispEdges"/><rect fill="#000000" x="1073.6" y="196.7" width="24.4" height="24.65" shape-rendering="crispEdges"/><rect fill="#0d0d0d" x="1098" y="196.7" width="24.4" height="24.65" shape-rendering="crispEdges"/><rect fill="#1e1e1e" x="0" y="221.1" width="24.4" height="24.65" shape-rendering="crispEdges"/><rect fill="#1e1e1e" x="24.4" y="221.1" width="97.6" height="24.65" shape-rendering="crispEdges"/><rect fill="#1e1e1e" x="122" y="221.1" width="427" height="24.65" shape-rendering="crispEdges"/><rect fill="#1e1e1e" x="549" y="221.1" width="24.4" height="24.65" shape-rendering="crispEdges"/><rect fill="#1e1e1e" x="573.4" y="221.1" width="12.2" height="24.65" shape-rendering="crispEdges"/><rect fill="#0d0d0d" x="585.6" y="221.1" width="24.4" height="24.65" shape-rendering="crispEdges"/><rect fill="#0d0d0d" x="610" y="221.1" width="463.6" height="24.65" shape-rendering="crispEdges"/><rect fill="#000000" x="1073.6" y="221.1" width="24.4" height="24.65" shape-rendering="crispEdges"/><rect fill="#0d0d0d" x="1098" y="221.1" width="24.4" height="24.65" shape-rendering="crispEdges"/><rect fill="#1e1e1e" x="0" y="245.5" width="24.4" height="24.65" shape-rendering="crispEdges"/><rect fill="#0178d4" x="24.4" y="245.5" width="12.2" height="24.65" shape-rendering="crispEdges"/><rect fill="#272727" x="36.6" y="245.5" width="500.2" height="24.65" shape-rendering="crispEdges"/><rect fill="#1e1e1e" x="536.8" y="245.5" width="12.2" height="24.65" shape-rendering="crispEdges"/><rect fill="#1e1e1e" x="549" y="245.5" width="24.4" height="24.65" shape-rendering="crispEdges"/><rect fill="#1e1e1e" x="573.4" y="245.5" width="12.2" height="24.65" shape-rendering="crispEdges"/><rect fill="#0d0d0d" x="585.6" y="245.5" width="24.4" height="24.65" shape-rendering="crispEdges"/><rect fill="#0d0d0d" x="610" y="245.5" width="463.6" height="24.65" shape-rendering="crispEdges"/><rect fill="#000000" x="1073.6" y="245.5" width="24.4" height="24.65" shape-rendering="crispEdges"/><rect fill="#0d0d0d" x="1098" y="245.5" width="24.4" height="24.65" shape-rendering="crispEdges"/><rect fill="#1e1e1e" x="0" y="269.9" width="24.4" height="24.65" shape-rendering="crispEdges"/><rect fill="#0178d4" x="24.4" y="269.9" width="12.2" height="24.65" shape-rendering="crispEdges"/><rect fill="#272727" x="36.6" y="269.9" width="24.4" height="24.65" shape-rendering="crispEdges"/><rect fill="#2d4e74" x="61" y="269.9" width="134.2" height="24.65" shape-rendering="crispEdges"/><rect fill="#e0e0e0" x="195.2" y="269.9" width="12.2" height="24.65" shape-rendering="crispEdges"/><rect fill="#272727" x="207.4" y="269.9" width="305" height="24.65" shape-rendering="crispEdges"/><rect fill="#272727" x="512.4" y="269.9" width="24.4" height="24.65" shape-rendering="crispEdges"/><rect fill="#1e1e1e" x="536.8" y="269.9" width="12.2" height="24.65" shape-rendering="crispEdges"/><rect fill="#1e1e1e" x="549" y="269.9" width="24.4" height="24.65" shape-rendering="crispEdges"/><rect fill="#1e1e1e" x="573.4" y="269.9" width="12.2" height="24.65" shape-rendering="crispEdges"/><rect fill="#0d0d0d" x="585.6" y="269.9" width="24.4" height="24.65" shape-rendering="crispEdges"/><rect fill="#0d0d0d" x="610" y="269.9" width="463.6" height="24.65" shape-rendering="crispEdges"/><rect fill="#000000" x="1073.6" y="269.9" width="24.4" height="24.65" shape-rendering="crispEdges"/><rect fill="#0d0d0d" x="1098" y="269.9" width="24.4" height="24.65" shape-rendering="crispEdges"/><rect fill="#1e1e1e" x="0" y="294.3" width="24.4" height="24.65" shape-rendering="crispEdges"/><rect fill="#0178d4" x="24.4" y="294.3" width="12.2" height="24.65" shape-rendering="crispEdges"/><rect fill="#272727" x="36.6" y="294.3" width="500.2" height="24.65" shape-rendering="crispEdges"/><rect fill="#1e1e1e" x="536.8" y="294.3" width="12.2" height="24.65" shape-rendering="crispEdges"/><rect fill="#1e1e1e" x="549" y="294.3" width="24.4" height="24.65" shape-rendering="crispEdges"/><rect fill="#1e1e1e" x="573.4" y="294.3" width="12.2" height="24.65" shape-rendering="crispEdges"/><rect fill="#0d0d0d" x="585.6" y="294.3" width="24.4" height="24.65" shape-rendering="crispEdges"/><rect fill="#0d0d0d" x="610" y="294.3" width="463.6" height="24.65" shape-rendering="crispEdges"/><rect fill="#000000" x="1073.6" y="294.3" width="24.4" height="24.65" shape-rendering="crispEdges"/><rect fill="#0d0d0d" x="1098" y="294.3" width="24.4" height="24.65" shape-rendering="crispEdges"/><rect fill="#1e1e1e" x="0" y="318.7" width="24.4" height="24.65" shape-rendering="crispEdges"/><rect fill="#1e1e1e" x="24.4" y="318.7" width="524.6" height="24.65" shape-rendering="crispEdges"/><rect fill="#1e1e1e" x="549" y="318.7" width="24.4" height="24.65" shape-rendering="crispEdges"/><rect fill="#1e1e1e" x="573.4" y="318.7" width="12.2" height="24.65" shape-rendering="crispEdges"/><rect fill="#0d0d0d" x="585.6" y="318.7" width="24.4" height="24.65" shape-rendering="crispEdges"/><rect fill="#0d0d0d" x="610" y="318.7" width="463.6" height="24.65" shape-rendering="crispEdges"/><rect fill="#000000" x="1073.6" y="318.7" width="24.4" height="24.65" shape-rendering="crispEdges"/><rect fill="#0d0d0d" x="1098" y="318.7" width="24.4" height="24.65" shape-rendering="crispEdges"/><rect fill="#1e1e1e" x="0" y="343.1" width="24.4" height="24.65" shape-rendering="crispEdges"/><rect fill="#1e1e1e" x="24.4" y="343.1" width="109.8" height="24.65" shape-rendering="crispEdges"/><rect fill="#1e1e1e" x="134.2" y="343.1" width="414.8" height="24.65" shape-rendering="crispEdges"/><rect fill="#1e1e1e" x="549" y="343.1" width="24.4" height="24.65" shape-rendering="crispEdges"/><rect fill="#1e1e1e" x="573.4" y="343.1" width="12.2" height="24.65" shape-rendering="crispEdges"/><rect fill="#0d0d0d" x="585.6" y="343.1" width="24.4" height="24.65" shape-rendering="crispEdges"/><rect fill="#0d0d0d" x="610" y="343.1" width="463.6" height="24.65" shape-rendering="crispEdges"/><rect fill="#000000" x="1073.6" y="343.1" width="24.4" height="24.65" shape-rendering="crispEdges"/><rect fill="#0d0d0d" x="1098" y="343.1" width="24.4" height="24.65" shape-rendering="crispEdges"/><rect fill="#1e1e1e" x="0" y="367.5" width="24.4" height="24.65" shape-rendering="crispEdges"/><rect fill="#191919" x="24.4" y="367.5" width="12.2" height="24.65" shape-rendering="crispEdges"/><rect fill="#1e1e1e" x="36.6" y="367.5" width="500.2" height="24.65" shape-rendering="crispEdges"/><rect fill="#1e1e1e" x="536.8" y="367.5" width="12.2" height="24.65" shape-rendering="crispEdges"/><rect fill="#1e1e1e" x="549" y="367.5" width="24.4" height="24.65" shape-rendering="crispEdges"/><rect fill="#1e1e1e" x="573.4" y="367.5" width="12.2" height="24.65" shape-rendering="crispEdges"/><rect fill="#0d0d0d" x="585.6" y="367.5" width="24.4" height="24.65" shape-rendering="crispEdges"/><rect fill="#0d0d0d" x="610" y="367.5" width="463.6" height="24.65" shape-rendering="crispEdges"/><rect fill="#000000" x="1073.6" y="367.5" width="24.4" height="24.65" shape-rendering="crispEdges"/><rect fill="#0d0d0d" x="1098" y="367.5" width="24.4" height="24.65" shape-rendering="crispEdges"/><rect fill="#1e1e1e" x="0" y="391.9" width="24.4" height="24.65" shape-rendering="crispEdges"/><rect fill="#191919" x="24.4" y="391.9" width="12.2" height="24.65" shape-rendering="crispEdges"/><rect fill="#1e1e1e" x="36.6" y="391.9" width="24.4" height="24.65" shape-rendering="crispEdges"/><rect fill="#1e1e1e" x="61" y="391.9" width="146.4" height="24.65" shape-rendering="crispEdges"/><rect fill="#1e1e1e" x="207.4" y="391.9" width="280.6" height="24.65" shape-rendering="crispEdges"/><rect fill="#1e1e1e" x="488" y="391.9" width="12.2" height="24.65" shape-rendering="crispEdges"/><rect fill="#1e1e1e" x="500.2" y="391.9" width="12.2" height="24.65" shape-rendering="crispEdges"/><rect fill="#1e1e1e" x="512.4" y="391.9" width="24.4" height="24.65" shape-rendering="crispEdges"/><rect fill="#1e1e1e" x="536.8" y="391.9" width="12.2" height="24.65" shape-rendering="crispEdges"/><rect fill="#1e1e1e" x="549" y="391.9" width="24.4" height="24.65" shape-rendering="crispEdges"/><rect fill="#1e1e1e" x="573.4" y="391.9" width="12.2" height="24.65" shape-rendering="crispEdges"/><rect fill="#0d0d0d" x="585.6" y="391.9" width="24.4" height="24.65" shape-rendering="crispEdges"/><rect fill="#0d0d0d" x="610" y="391.9" width="463.6" height="24.65" shape-rendering="crispEdges"/><rect fill="#000000" x="1073.6" y="391.9" width="24.4" height="24.65" shape-rendering="crispEdges"/><rect fill="#0d0d0d" x="1098" y="391.9" width="24.4" height="24.65" shape-rendering="crispEdges"/><rect fill="#1e1e1e" x="0" y="416.3" width="24.4" height="24.65" shape-rendering="crispEdges"/><rect fill="#191919" x="24.4" y="416.3" width="12.2" height="24.65" shape-rendering="crispEdges"/><rect fill="#1e1e1e" x="36.6" y="416.3" width="500.2" height="24.65" shape-rendering="crispEdges"/><rect fill="#1e1e1e" x="536.8" y="416.3" width="12.2" height="24.65" shape-rendering="crispEdges"/><rect fill="#1e1e1e" x="549" y="416.3" width="24.4" height="24.65" shape-rendering="crispEdges"/><rect fill="#1e1e1e" x="573.4" y="416.3" width="12.2" height="24.65" shape-rendering="crispEdges"/><rect fill="#0d0d0d" x="585.6" y="416.3" width="24.4" height="24.65" shape-rendering="crispEdges"/><rect fill="#0d0d0d" x="610" y="416.3" width="463.6" height="24.65" shape-rendering="crispEdges"/><rect fill="#000000" x="1073.6" y="416.3" width="24.4" height="24.65" shape-rendering="crispEdges"/><rect fill="#0d0d0d" x="1098" y="416.3" width="24.4" height="24.65" shape-rendering="crispEdges"/><rect fill="#1e1e1e" x="0" y="440.7" width="24.4" height="24.65" shape-rendering="crispEdges"/><rect fill="#1e1e1e" x="24.4" y="440.7" width="524.6" height="24.65" shape-rendering="crispEdges"/><rect fill="#1e1e1e" x="549" y="440.7" width="24.4" height="24.65" shape-rendering="crispEdges"/><rect fill="#1e1e1e" x="573.4" y="440.7" width="12.2" height="24.65" shape-rendering="crispEdges"/><rect fill="#0d0d0d" x="585.6" y="440.7" width="24.4" height="24.65" shape-rendering="crispEdges"/><rect fill="#0d0d0d" x="610" y="440.7" width="463.6" height="24.65" shape-rendering="crispEdges"/><rect fill="#000000" x="1073.6" y="440.7" width="24.4" height="24.65" shape-rendering="crispEdges"/><rect fill="#0d0d0d" x="1098" y="440.7" width="24.4" height="24.65" shape-rendering="crispEdges"/><rect fill="#1e1e1e" x="0" y="465.1" width="24.4" height="24.65" shape-rendering="crispEdges"/><rect fill="#4ebf71" x="24.4" y="465.1" width="195.2" height="24.65" shape-rendering="crispEdges"/><rect fill="#1e1e1e" x="219.6" y="465.1" width="24.4" height="24.65" shape-rendering="crispEdges"/><rect fill="#1e1e1e" x="244" y="465.1" width="195.2" height="24.65" shape-rendering="crispEdges"/><rect fill="#1e1e1e" x="439.2" y="465.1" width="109.8" height="24.65" shape-rendering="crispEdges"/><rect fill="#1e1e1e" x="549" y="465.1" width="24.4" height="24.65" shape-rendering="crispEdges"/><rect fill="#1e1e1e" x="573.4" y="465.1" width="12.2" height="24.65" shape-rendering="crispEdges"/><rect fill="#0d0d0d" x="585.6" y="465.1" width="24.4" height="24.65" shape-rendering="crispEdges"/><rect fill="#0d0d0d" x="610" y="465.1" width="463.6" height="24.65" shape-rendering="crispEdges"/><rect fill="#000000" x="1073.6" y="465.1" width="24.4" height="24.65" shape-rendering="crispEdges"/><rect fill="#0d0d0d" x="1098" y="465.1" width="24.4" height="24.65" shape-rendering="crispEdges"/><rect fill="#1e1e1e" x="0" y="489.5" width="573.4" height="24.65" shape-rendering="crispEdges"/><rect fill="#1e1e1e" x="573.4" y="489.5" width="12.2" height="24.65" shape-rendering="crispEdges"/><rect fill="#0d0d0d" x="585.6" y="489.5" width="536.8" height="24.65" shape-rendering="crispEdges"/><rect fill="#242f38" x="0" y="513.9" width="61" height="24.65" shape-rendering="crispEdges"/><rect fill="#242f38" x="61" y="513.9" width="61" height="24.65" shape-rendering="crispEdges"/><rect fill="#242f38" x="122" y="513.9" width="48.8" height="24.65" shape-rendering="crispEdges"/><rect fill="#242f38" x="170.8" y="513.9" width="61" height="24.65" shape-rendering="crispEdges"/><rect fill="#242f38" x="231.8" y="513.9" width="744.2" height="24.65" shape-rendering="crispEdges"/><rect fill="#242f38" x="976" y="513.9" width="12.2" height="24.65" shape-rendering="crispEdges"/><rect fill="#242f38" x="988.2" y="513.9" width="24.4" height="24.65" shape-rendering="crispEdges"/><rect fill="#242f38" x="1012.6" y="513.9" width="97.6" height="24.65" shape-rendering="crispEdges"/><rect fill="#242f38" x="1110.2" y="513.9" width="12.2" height="24.65" shape-rendering="crispEdges"/>
    <g class="terminal-4067999011-matrix">
    <text class="terminal-4067999011-r2" x="12.2" y="20" textLength="12.2" clip-path="url(#terminal-4067999011-line-0)">⭘</text><text class="terminal-4067999011-r2" x="488" y="20" textLength="109.8" clip-path="url(#terminal-4067999011-line-0)">Apply&#160;ACL</text><text class="terminal-4067999011-r1" x="1122.4" y="20" textLength="12.2" clip-path="url(#terminal-4067999011-line-0)">
</text><text class="terminal-4067999011-r3" x="573.4" y="44.4" textLength="12.2" clip-path="url(#terminal-4067999011-line-1)">│</text><text class="terminal-4067999011-r1" x="1122.4" y="44.4" textLength="12.2" clip-path="url(#terminal-4067999011-line-1)">
</text><text class="terminal-4067999011-r4" x="24.4" y="68.8" textLength="268.4" clip-path="url(#terminal-4067999011-line-2)">Apply&#160;ACL&#160;to&#160;interface</text><text class="terminal-4067999011-r3" x="573.4" y="68.8" textLength="12.2" clip-path="url(#terminal-4067999011-line-2)">│</text><text class="terminal-4067999011-r5" x="610" y="68.8" textLength="12.2" clip-path="url(#terminal-4067999011-line-2)">·</text><text class="terminal-4067999011-r2" x="622.2" y="68.8" textLength="280.6" clip-path="url(#terminal-4067999011-line-2)">&#160;Loaded&#160;6&#160;interface(s).</text><text class="terminal-4067999011-r1" x="1122.4" y="68.8" textLength="12.2" clip-path="url(#terminal-4067999011-line-2)">
</text><text class="terminal-4067999011-r3" x="573.4" y="93.2" textLength="12.2" clip-path="url(#terminal-4067999011-line-3)">│</text><text class="terminal-4067999011-r1" x="1122.4" y="93.2" textLength="12.2" clip-path="url(#terminal-4067999011-line-3)">
</text><text class="terminal-4067999011-r2" x="24.4" y="117.6" textLength="109.8" clip-path="url(#terminal-4067999011-line-4)">Interface</text><text class="terminal-4067999011-r3" x="573.4" y="117.6" textLength="12.2" clip-path="url(#terminal-4067999011-line-4)">│</text><text class="terminal-4067999011-r1" x="1122.4" y="117.6" textLength="12.2" clip-path="url(#terminal-4067999011-line-4)">
</text><text class="terminal-4067999011-r6" x="24.4" y="142" textLength="12.2" clip-path="url(#terminal-4067999011-line-5)">▊</text><text class="terminal-4067999011-r7" x="36.6" y="142" textLength="500.2" clip-path="url(#terminal-4067999011-line-5)">▔▔▔▔▔▔▔▔▔▔▔▔▔▔▔▔▔▔▔▔▔▔▔▔▔▔▔▔▔▔▔▔▔▔▔▔▔▔▔▔▔</text><text class="terminal-4067999011-r7" x="536.8" y="142" textLength="12.2" clip-path="url(#terminal-4067999011-line-5)">▎</text><text class="terminal-4067999011-r3" x="573.4" y="142" textLength="12.2" clip-path="url(#terminal-4067999011-line-5)">│</text><text class="terminal-4067999011-r1" x="1122.4" y="142" textLength="12.2" clip-path="url(#terminal-4067999011-line-5)">
</text><text class="terminal-4067999011-r6" x="24.4" y="166.4" textLength="12.2" clip-path="url(#terminal-4067999011-line-6)">▊</text><text class="terminal-4067999011-r2" x="61" y="166.4" textLength="329.4" clip-path="url(#terminal-4067999011-line-6)">Vlan20&#160;&#160;(10.10.20.1,&#160;up/up)</text><text class="terminal-4067999011-r8" x="500.2" y="166.4" textLength="12.2" clip-path="url(#terminal-4067999011-line-6)">▼</text><text class="terminal-4067999011-r7" x="536.8" y="166.4" textLength="12.2" clip-path="url(#terminal-4067999011-line-6)">▎</text><text class="terminal-4067999011-r3" x="573.4" y="166.4" textLength="12.2" clip-path="url(#terminal-4067999011-line-6)">│</text><text class="terminal-4067999011-r1" x="1122.4" y="166.4" textLength="12.2" clip-path="url(#terminal-4067999011-line-6)">
</text><text class="terminal-4067999011-r6" x="24.4" y="190.8" textLength="12.2" clip-path="url(#terminal-4067999011-line-7)">▊</text><text class="terminal-4067999011-r7" x="36.6" y="190.8" textLength="500.2" clip-path="url(#terminal-4067999011-line-7)">▁▁▁▁▁▁▁▁▁▁▁▁▁▁▁▁▁▁▁▁▁▁▁▁▁▁▁▁▁▁▁▁▁▁▁▁▁▁▁▁▁</text><text class="terminal-4067999011-r7" x="536.8" y="190.8" textLength="12.2" clip-path="url(#terminal-4067999011-line-7)">▎</text><text class="terminal-4067999011-r3" x="573.4" y="190.8" textLength="12.2" clip-path="url(#terminal-4067999011-line-7)">│</text><text class="terminal-4067999011-r1" x="1122.4" y="190.8" textLength="12.2" clip-path="url(#terminal-4067999011-line-7)">
</text><text class="terminal-4067999011-r3" x="573.4" y="215.2" textLength="12.2" clip-path="url(#terminal-4067999011-line-8)">│</text><text class="terminal-4067999011-r1" x="1122.4" y="215.2" textLength="12.2" clip-path="url(#terminal-4067999011-line-8)">
</text><text class="terminal-4067999011-r2" x="24.4" y="239.6" textLength="97.6" clip-path="url(#terminal-4067999011-line-9)">ACL&#160;name</text><text class="terminal-4067999011-r3" x="573.4" y="239.6" textLength="12.2" clip-path="url(#terminal-4067999011-line-9)">│</text><text class="terminal-4067999011-r1" x="1122.4" y="239.6" textLength="12.2" clip-path="url(#terminal-4067999011-line-9)">
</text><text class="terminal-4067999011-r6" x="24.4" y="264" textLength="12.2" clip-path="url(#terminal-4067999011-line-10)">▊</text><text class="terminal-4067999011-r9" x="36.6" y="264" textLength="500.2" clip-path="url(#terminal-4067999011-line-10)">▔▔▔▔▔▔▔▔▔▔▔▔▔▔▔▔▔▔▔▔▔▔▔▔▔▔▔▔▔▔▔▔▔▔▔▔▔▔▔▔▔</text><text class="terminal-4067999011-r9" x="536.8" y="264" textLength="12.2" clip-path="url(#terminal-4067999011-line-10)">▎</text><text class="terminal-4067999011-r3" x="573.4" y="264" textLength="12.2" clip-path="url(#terminal-4067999011-line-10)">│</text><text class="terminal-4067999011-r1" x="1122.4" y="264" textLength="12.2" clip-path="url(#terminal-4067999011-line-10)">
</text><text class="terminal-4067999011-r6" x="24.4" y="288.4" textLength="12.2" clip-path="url(#terminal-4067999011-line-11)">▊</text><text class="terminal-4067999011-r2" x="61" y="288.4" textLength="134.2" clip-path="url(#terminal-4067999011-line-11)">ZONE-APP-IN</text><text class="terminal-4067999011-r9" x="536.8" y="288.4" textLength="12.2" clip-path="url(#terminal-4067999011-line-11)">▎</text><text class="terminal-4067999011-r3" x="573.4" y="288.4" textLength="12.2" clip-path="url(#terminal-4067999011-line-11)">│</text><text class="terminal-4067999011-r1" x="1122.4" y="288.4" textLength="12.2" clip-path="url(#terminal-4067999011-line-11)">
</text><text class="terminal-4067999011-r6" x="24.4" y="312.8" textLength="12.2" clip-path="url(#terminal-4067999011-line-12)">▊</text><text class="terminal-4067999011-r9" x="36.6" y="312.8" textLength="500.2" clip-path="url(#terminal-4067999011-line-12)">▁▁▁▁▁▁▁▁▁▁▁▁▁▁▁▁▁▁▁▁▁▁▁▁▁▁▁▁▁▁▁▁▁▁▁▁▁▁▁▁▁</text><text class="terminal-4067999011-r9" x="536.8" y="312.8" textLength="12.2" clip-path="url(#terminal-4067999011-line-12)">▎</text><text class="terminal-4067999011-r3" x="573.4" y="312.8" textLength="12.2" clip-path="url(#terminal-4067999011-line-12)">│</text><text class="terminal-4067999011-r1" x="1122.4" y="312.8" textLength="12.2" clip-path="url(#terminal-4067999011-line-12)">
</text><text class="terminal-4067999011-r3" x="573.4" y="337.2" textLength="12.2" clip-path="url(#terminal-4067999011-line-13)">│</text><text class="terminal-4067999011-r1" x="1122.4" y="337.2" textLength="12.2" clip-path="url(#terminal-4067999011-line-13)">
</text><text class="terminal-4067999011-r2" x="24.4" y="361.6" textLength="109.8" clip-path="url(#terminal-4067999011-line-14)">Direction</text><text class="terminal-4067999011-r3" x="573.4" y="361.6" textLength="12.2" clip-path="url(#terminal-4067999011-line-14)">│</text><text class="terminal-4067999011-r1" x="1122.4" y="361.6" textLength="12.2" clip-path="url(#terminal-4067999011-line-14)">
</text><text class="terminal-4067999011-r6" x="24.4" y="386" textLength="12.2" clip-path="url(#terminal-4067999011-line-15)">▊</text><text class="terminal-4067999011-r7" x="36.6" y="386" textLength="500.2" clip-path="url(#terminal-4067999011-line-15)">▔▔▔▔▔▔▔▔▔▔▔▔▔▔▔▔▔▔▔▔▔▔▔▔▔▔▔▔▔▔▔▔▔▔▔▔▔▔▔▔▔</text><text class="terminal-4067999011-r7" x="536.8" y="386" textLength="12.2" clip-path="url(#terminal-4067999011-line-15)">▎</text><text class="terminal-4067999011-r3" x="573.4" y="386" textLength="12.2" clip-path="url(#terminal-4067999011-line-15)">│</text><text class="terminal-4067999011-r1" x="1122.4" y="386" textLength="12.2" clip-path="url(#terminal-4067999011-line-15)">
</text><text class="terminal-4067999011-r6" x="24.4" y="410.4" textLength="12.2" clip-path="url(#terminal-4067999011-line-16)">▊</text><text class="terminal-4067999011-r2" x="61" y="410.4" textLength="146.4" clip-path="url(#terminal-4067999011-line-16)">inbound&#160;(in)</text><text class="terminal-4067999011-r8" x="500.2" y="410.4" textLength="12.2" clip-path="url(#terminal-4067999011-line-16)">▼</text><text class="terminal-4067999011-r7" x="536.8" y="410.4" textLength="12.2" clip-path="url(#terminal-4067999011-line-16)">▎</text><text class="terminal-4067999011-r3" x="573.4" y="410.4" textLength="12.2" clip-path="url(#terminal-4067999011-line-16)">│</text><text class="terminal-4067999011-r1" x="1122.4" y="410.4" textLength="12.2" clip-path="url(#terminal-4067999011-line-16)">
</text><text class="terminal-4067999011-r6" x="24.4" y="434.8" textLength="12.2" clip-path="url(#terminal-4067999011-line-17)">▊</text><text class="terminal-4067999011-r7" x="36.6" y="434.8" textLength="500.2" clip-path="url(#terminal-4067999011-line-17)">▁▁▁▁▁▁▁▁▁▁▁▁▁▁▁▁▁▁▁▁▁▁▁▁▁▁▁▁▁▁▁▁▁▁▁▁▁▁▁▁▁</text><text class="terminal-4067999011-r7" x="536.8" y="434.8" textLength="12.2" clip-path="url(#terminal-4067999011-line-17)">▎</text><text class="terminal-4067999011-r3" x="573.4" y="434.8" textLength="12.2" clip-path="url(#terminal-4067999011-line-17)">│</text><text class="terminal-4067999011-r1" x="1122.4" y="434.8" textLength="12.2" clip-path="url(#terminal-4067999011-line-17)">
</text><text class="terminal-4067999011-r3" x="573.4" y="459.2" textLength="12.2" clip-path="url(#terminal-4067999011-line-18)">│</text><text class="terminal-4067999011-r1" x="1122.4" y="459.2" textLength="12.2" clip-path="url(#terminal-4067999011-line-18)">
</text><text class="terminal-4067999011-r11" x="24.4" y="483.6" textLength="195.2" clip-path="url(#terminal-4067999011-line-19)">▔▔▔▔▔▔▔▔▔▔▔▔▔▔▔▔</text><text class="terminal-4067999011-r12" x="244" y="483.6" textLength="195.2" clip-path="url(#terminal-4067999011-line-19)">▔▔▔▔▔▔▔▔▔▔▔▔▔▔▔▔</text><text class="terminal-4067999011-r3" x="573.4" y="483.6" textLength="12.2" clip-path="url(#terminal-4067999011-line-19)">│</text><text class="terminal-4067999011-r1" x="1122.4" y="483.6" textLength="12.2" clip-path="url(#terminal-4067999011-line-19)">
</text><text class="terminal-4067999011-r3" x="573.4" y="508" textLength="12.2" clip-path="url(#terminal-4067999011-line-20)">│</text><text class="terminal-4067999011-r1" x="1122.4" y="508" textLength="12.2" clip-path="url(#terminal-4067999011-line-20)">
</text><text class="terminal-4067999011-r13" x="0" y="532.4" textLength="61" clip-path="url(#terminal-4067999011-line-21)">&#160;esc&#160;</text><text class="terminal-4067999011-r2" x="61" y="532.4" textLength="61" clip-path="url(#terminal-4067999011-line-21)">Back&#160;</text><text class="terminal-4067999011-r13" x="122" y="532.4" textLength="48.8" clip-path="url(#terminal-4067999011-line-21)">&#160;^q&#160;</text><text class="terminal-4067999011-r2" x="170.8" y="532.4" textLength="61" clip-path="url(#terminal-4067999011-line-21)">Quit&#160;</text><text class="terminal-4067999011-r14" x="976" y="532.4" textLength="12.2" clip-path="url(#terminal-4067999011-line-21)">▏</text><text class="terminal-4067999011-r13" x="988.2" y="532.4" textLength="24.4" clip-path="url(#terminal-4067999011-line-21)">^p</text><text class="terminal-4067999011-r2" x="1012.6" y="532.4" textLength="97.6" clip-path="url(#terminal-4067999011-line-21)">&#160;palette</text>
    </g>
    </g>
</svg>
